<svg width="58" height="130" viewBox="0 0 58 130" fill="none" xmlns="http://www.w3.org/2000/svg">
<path d="M29.0346 0L12.3697 16.4513L12.3697 65.2446L58 111.905L58 64.9652C58 63.7621 57.5366 62.6082 56.7118 61.7574L49.7536 54.5802L49.7536 91.4951L20.6161 61.6997L20.6161 20.0844L29.0217 11.7865L37.3839 20.0788L37.3839 60.9823L31.5867 66.9619L37.6122 73.177L45.6303 64.9065L45.6303 16.457L29.0346 0Z" fill="url(#paint0_linear_321_319)"/>
<path d="M1.28817 61.7574C0.463371 62.6082 3.8147e-06 63.7621 3.8147e-06 64.9652L3.8147e-06 111.958L26.0036 85.1731L20.1765 79.1543L8.24644 91.4427L8.24644 54.5802L1.28817 61.7574Z" fill="url(#paint1_linear_321_319)"/>
<path d="M29 88.1788L33.1232 92.4318V125.747L29 130L24.8768 125.747V92.4318L29 88.1788Z" fill="url(#paint2_linear_321_319)"/>
<path d="M45.6303 105.049L38.7284 97.9607V121.494L44.3354 115.736C45.1643 114.884 45.6303 113.727 45.6303 112.521V105.049Z" fill="url(#paint3_linear_321_319)"/>
<path d="M19.2417 98.1025L12.3398 105.191V113.371C12.3398 114.578 12.8058 115.735 13.6347 116.586L19.2417 122.345V98.1025Z" fill="url(#paint4_linear_321_319)"/>
<defs>
<linearGradient id="paint0_linear_321_319" x1="31.5" y1="-1.49991" x2="31" y2="130" gradientUnits="userSpaceOnUse">
<stop stop-color="#6167FB"/>
<stop offset="0.54357" stop-color="#26BAF8"/>
<stop offset="0.80082" stop-color="#46F7B0"/>
</linearGradient>
<linearGradient id="paint1_linear_321_319" x1="31.5" y1="-1.49991" x2="31" y2="130" gradientUnits="userSpaceOnUse">
<stop stop-color="#6167FB"/>
<stop offset="0.54357" stop-color="#26BAF8"/>
<stop offset="0.80082" stop-color="#46F7B0"/>
</linearGradient>
<linearGradient id="paint2_linear_321_319" x1="31.5" y1="-1.49991" x2="31" y2="130" gradientUnits="userSpaceOnUse">
<stop stop-color="#6167FB"/>
<stop offset="0.54357" stop-color="#26BAF8"/>
<stop offset="0.80082" stop-color="#46F7B0"/>
</linearGradient>
<linearGradient id="paint3_linear_321_319" x1="31.5" y1="-1.49991" x2="31" y2="130" gradientUnits="userSpaceOnUse">
<stop stop-color="#6167FB"/>
<stop offset="0.54357" stop-color="#26BAF8"/>
<stop offset="0.80082" stop-color="#46F7B0"/>
</linearGradient>
<linearGradient id="paint4_linear_321_319" x1="31.5" y1="-1.49991" x2="31" y2="130" gradientUnits="userSpaceOnUse">
<stop stop-color="#6167FB"/>
<stop offset="0.54357" stop-color="#26BAF8"/>
<stop offset="0.80082" stop-color="#46F7B0"/>
</linearGradient>
</defs>
</svg>
