<svg width="114" height="44" viewBox="0 0 114 44" fill="none" xmlns="http://www.w3.org/2000/svg">
<g clip-path="url(#clip0_2_217)">
<path d="M31.0509 22.1409C31.0509 21.7766 30.9031 21.4259 30.6453 21.1681L28.4453 18.9888V30.1847L24.9391 26.62L23.8116 25.4959L27.1391 22.2234V7.40438L21.8763 2.40625L16.6272 7.40438V22.1203L20.0613 25.5406L15.3244 30.195V18.9853L13.1244 21.1647C12.8631 21.4225 12.7188 21.7731 12.7188 22.1375V36.3963L16.6272 32.5531V36.5819C16.6272 36.9497 16.775 37.3003 17.0363 37.5581L18.81 39.3078V30.4081L20.5803 28.6688V40.6003L21.8831 41.8928L23.1859 40.6003V28.6516L24.9666 30.4081V39.5656L26.7403 37.8159C27.0016 37.5581 27.1494 37.2075 27.1494 36.8397V32.56L31.0509 36.41V22.1409ZM19.2328 20.9309V8.50438L21.8763 5.98469L24.5334 8.50438V21.1475L21.9725 23.6638L19.2328 20.9309Z" fill="#22FFAF"/>
</g>
<path d="M44.688 20C43.632 20 42.6 19.8 41.592 19.4C40.6 19 39.728 18.384 38.976 17.552L40.848 15.872C41.328 16.416 41.904 16.824 42.576 17.096C43.264 17.368 43.968 17.504 44.688 17.504C45.28 17.504 45.824 17.416 46.32 17.24C47.024 16.952 47.384 16.616 47.4 16.232C47.416 15.752 47.344 15.392 47.184 15.152C47.024 14.912 46.728 14.736 46.296 14.624C45.864 14.496 45.184 14.384 44.256 14.288C43.28 14.176 42.448 14.032 41.76 13.856C41.072 13.664 40.464 13.296 39.936 12.752C39.424 12.192 39.168 11.384 39.168 10.328C39.168 9.672 39.344 9.08 39.696 8.552C40.064 8.024 40.576 7.6 41.232 7.28C42.16 6.816 43.28 6.584 44.592 6.584C45.568 6.584 46.52 6.72 47.448 6.992C48.392 7.264 49.2 7.656 49.872 8.168L48.36 10.16C47.896 9.808 47.328 9.544 46.656 9.368C45.984 9.176 45.296 9.08 44.592 9.08C43.664 9.08 42.912 9.224 42.336 9.512C41.888 9.736 41.664 10.008 41.664 10.328C41.664 10.664 41.728 10.92 41.856 11.096C41.984 11.256 42.24 11.392 42.624 11.504C43.024 11.616 43.656 11.72 44.52 11.816C45.496 11.912 46.352 12.064 47.088 12.272C47.824 12.48 48.472 12.896 49.032 13.52C49.608 14.128 49.896 15.016 49.896 16.184C49.896 16.936 49.656 17.616 49.176 18.224C48.696 18.816 48.032 19.264 47.184 19.568C46.448 19.856 45.616 20 44.688 20ZM51.5784 6.584H57.5064C58.3064 6.584 59.0424 6.784 59.7144 7.184C60.4024 7.584 60.9464 8.128 61.3464 8.816C61.7464 9.488 61.9464 10.224 61.9464 11.024C61.9464 11.824 61.7464 12.568 61.3464 13.256C60.9464 13.928 60.4024 14.464 59.7144 14.864C59.0424 15.264 58.3064 15.464 57.5064 15.464H54.0744V20H51.5784V6.584ZM57.5064 12.968C58.0344 12.968 58.4904 12.776 58.8744 12.392C59.2584 12.008 59.4504 11.552 59.4504 11.024C59.4504 10.48 59.2584 10.024 58.8744 9.656C58.4904 9.272 58.0344 9.08 57.5064 9.08H54.0744V12.968H57.5064ZM65.6833 6.584H69.0433L73.5313 20H70.8913L69.7393 16.544H64.9873L63.8353 20H61.1953L65.6833 6.584ZM68.8993 14.048L67.3633 9.44L65.8273 14.048H68.8993ZM79.977 20C78.761 20 77.641 19.704 76.617 19.112C75.593 18.504 74.777 17.688 74.169 16.664C73.577 15.624 73.281 14.496 73.281 13.28C73.281 12.064 73.577 10.944 74.169 9.92C74.777 8.896 75.593 8.088 76.617 7.496C77.641 6.888 78.761 6.584 79.977 6.584C81.033 6.584 82.033 6.824 82.977 7.304C83.937 7.768 84.729 8.424 85.353 9.272L83.361 10.784C82.945 10.24 82.441 9.824 81.849 9.536C81.273 9.232 80.649 9.08 79.977 9.08C79.209 9.08 78.505 9.272 77.865 9.656C77.225 10.024 76.713 10.536 76.329 11.192C75.961 11.832 75.777 12.528 75.777 13.28C75.777 14.048 75.961 14.76 76.329 15.416C76.713 16.056 77.225 16.568 77.865 16.952C78.505 17.32 79.209 17.504 79.977 17.504C80.649 17.504 81.273 17.36 81.849 17.072C82.441 16.768 82.945 16.352 83.361 15.824L85.353 17.312C84.713 18.16 83.921 18.824 82.977 19.304C82.033 19.768 81.033 20 79.977 20ZM86.595 6.584H96.339V9.08H89.091V12.032H92.715V14.528H89.091V17.504H96.339V20H86.595V6.584Z" fill="white"/>
<path d="M39 24.584H48.744V27.08H41.496V30.032H45.12V32.528H41.496V38H39V24.584ZM52.4018 24.584H55.7618L60.2498 38H57.6098L56.4578 34.544H51.7058L50.5538 38H47.9138L52.4018 24.584ZM55.6178 32.048L54.0818 27.44L52.5458 32.048H55.6178ZM61.5788 24.584H64.0748V35.504H70.5068V38H61.5788V24.584ZM77.3051 38C76.0891 38 74.9691 37.704 73.9451 37.112C72.9211 36.504 72.1051 35.688 71.4971 34.664C70.9051 33.624 70.6091 32.496 70.6091 31.28C70.6091 30.064 70.9051 28.944 71.4971 27.92C72.1051 26.896 72.9211 26.088 73.9451 25.496C74.9691 24.888 76.0891 24.584 77.3051 24.584C78.3611 24.584 79.3611 24.824 80.3051 25.304C81.2651 25.768 82.0571 26.424 82.6811 27.272L80.6891 28.784C80.2731 28.24 79.7691 27.824 79.1771 27.536C78.6011 27.232 77.9771 27.08 77.3051 27.08C76.5371 27.08 75.8331 27.272 75.1931 27.656C74.5531 28.024 74.0411 28.536 73.6571 29.192C73.2891 29.832 73.1051 30.528 73.1051 31.28C73.1051 32.048 73.2891 32.76 73.6571 33.416C74.0411 34.056 74.5531 34.568 75.1931 34.952C75.8331 35.32 76.5371 35.504 77.3051 35.504C77.9771 35.504 78.6011 35.36 79.1771 35.072C79.7691 34.768 80.2731 34.352 80.6891 33.824L82.6811 35.312C82.0411 36.16 81.2491 36.824 80.3051 37.304C79.3611 37.768 78.3611 38 77.3051 38ZM89.6738 38C88.4578 38 87.3298 37.704 86.2898 37.112C85.2658 36.504 84.4498 35.688 83.8418 34.664C83.2498 33.624 82.9538 32.496 82.9538 31.28C82.9538 30.064 83.2498 28.944 83.8418 27.92C84.4498 26.896 85.2658 26.088 86.2898 25.496C87.3298 24.888 88.4578 24.584 89.6738 24.584C90.8898 24.584 92.0098 24.888 93.0338 25.496C94.0578 26.088 94.8658 26.896 95.4578 27.92C96.0658 28.944 96.3698 30.064 96.3698 31.28C96.3698 32.496 96.0658 33.624 95.4578 34.664C94.8658 35.688 94.0578 36.504 93.0338 37.112C92.0098 37.704 90.8898 38 89.6738 38ZM89.6738 35.504C90.4258 35.504 91.1218 35.32 91.7618 34.952C92.4178 34.568 92.9298 34.056 93.2978 33.416C93.6818 32.76 93.8738 32.048 93.8738 31.28C93.8738 30.528 93.6818 29.832 93.2978 29.192C92.9298 28.536 92.4178 28.024 91.7618 27.656C91.1218 27.272 90.4258 27.08 89.6738 27.08C88.9058 27.08 88.1938 27.272 87.5378 27.656C86.8978 28.024 86.3858 28.536 86.0018 29.192C85.6338 29.832 85.4498 30.528 85.4498 31.28C85.4498 32.048 85.6338 32.76 86.0018 33.416C86.3858 34.056 86.8978 34.568 87.5378 34.952C88.1938 35.32 88.9058 35.504 89.6738 35.504ZM97.6969 24.584H100.121L106.313 33.584V24.584H108.809V38H106.337L100.193 29.072V38H97.6969V24.584Z" fill="white"/>
<defs>
<clipPath id="clip0_2_217">
<rect width="18.3322" height="39.4866" fill="white" transform="translate(12.7188 2.40625)"/>
</clipPath>
</defs>
</svg>
