<svg width="110" height="110" viewBox="0 0 110 110" fill="none" xmlns="http://www.w3.org/2000/svg">
    <rect width="110" height="110" rx="55" fill="#00FFC2" />
    <g clip-path="url(#clip0_13_600)">
        <path
            d="M70.9999 54.9846C70.9999 54.3329 70.7356 53.7058 70.2745 53.2447L66.3398 49.347V69.3707L60.069 62.9953L58.0524 60.985L64.0036 55.1322V28.6285L54.5912 19.6895L45.2033 28.6285V54.9477L51.3451 61.0649L42.8733 69.3892V49.3408L38.9386 53.2386C38.4713 53.6997 38.2131 54.3268 38.2131 54.9785V80.48L45.2033 73.6066V80.812C45.2033 81.4698 45.4677 82.0969 45.9349 82.558L49.1072 85.6873V69.7703L52.2734 66.6595V87.9989L54.6035 90.3105L56.9335 87.9989V66.6287L60.1181 69.7703V86.1484L63.2905 83.0191C63.7577 82.558 64.0221 81.9309 64.0221 81.2731V73.6189L70.9999 80.5046V54.9846ZM49.8634 52.8205V30.5958L54.5912 26.0894L59.3435 30.5958V53.2079L54.7633 57.7081L49.8634 52.8205Z"
            fill="#0F0F0F" />
    </g>
    <defs>
        <clipPath id="clip0_13_600">
            <rect width="32.7868" height="70.621" fill="white"
                transform="translate(38.2131 19.6895)" />
        </clipPath>
    </defs>
</svg>