<svg width="275" height="122" viewBox="0 0 275 122" fill="none" xmlns="http://www.w3.org/2000/svg">
    <g clip-path="url(#clip0_13_412)">
        <path
            d="M155.18 38.4907C155.18 37.787 154.895 37.1099 154.397 36.612L150.148 32.4031V54.0249L143.377 47.1407L141.2 44.9699L147.626 38.65V10.0312L137.462 0.378784L127.325 10.0312V38.4508L133.957 45.0562L124.809 54.0448V32.3965L120.56 36.6053C120.056 37.1032 119.777 37.7803 119.777 38.484V66.0207L127.325 58.5988V66.3792C127.325 67.0895 127.61 67.7666 128.115 68.2645L131.54 71.6436V54.4564L134.959 51.0973V74.1396L137.475 76.6357L139.991 74.1396V51.0641L143.43 54.4564V72.1414L146.856 68.7624C147.36 68.2645 147.646 67.5874 147.646 66.8771V58.6121L155.18 66.0473V38.4907ZM132.357 36.1539V12.1556L137.462 7.28951L142.594 12.1556V36.5721L137.648 41.4315L132.357 36.1539Z"
            fill="#00FFC2" />
    </g>
    <path
        d="M6.44687 116.576L10.0621 113.331C11.9161 115.417 14.697 116.483 17.478 116.483C18.6367 116.483 19.6564 116.298 20.6297 115.973C21.9738 115.417 22.6691 114.768 22.7154 114.026C22.7154 113.934 22.7154 113.841 22.7154 113.795C22.7154 112.172 22.2519 111.338 20.5834 110.875C19.7491 110.643 18.4513 110.458 16.6437 110.272C12.8894 109.855 10.3402 109.392 8.34719 107.259C7.32751 106.193 6.81767 104.664 6.81767 102.625C6.81767 100.075 8.25449 97.9896 10.8037 96.7382C12.6113 95.8576 14.7434 95.3941 17.2926 95.3941C21.0468 95.3941 24.8938 96.4601 27.4894 98.4531L24.5694 102.3C22.7618 100.956 20.0272 100.214 17.2926 100.214C15.4849 100.214 14.0481 100.492 12.9357 101.049C12.0551 101.466 11.638 102.022 11.638 102.625C11.638 103.922 12.0088 104.478 13.5383 104.896C14.2799 105.127 15.4849 105.313 17.1535 105.498C20.9078 105.869 23.6887 106.379 25.9135 108.743C26.9795 109.948 27.5357 111.663 27.5357 113.934C27.5357 116.854 25.5891 119.31 22.2983 120.469C20.8614 121.025 19.2856 121.303 17.478 121.303C13.3992 121.303 9.36687 119.774 6.44687 116.576ZM30.7849 95.3941H42.2331C46.9144 95.3941 50.8077 99.2874 50.8077 103.969C50.8077 108.65 46.9144 112.543 42.2331 112.543H35.6052V121.303H30.7849V95.3941ZM35.6052 100.214V107.723H42.2331C44.2725 107.723 45.9874 106.008 45.9874 103.969C45.9874 101.883 44.2725 100.214 42.2331 100.214H35.6052ZM54.4555 121.303H49.3571L58.0244 95.3941H64.5133L73.1805 121.303H68.0821L65.8574 114.629H56.6803L54.4555 121.303ZM61.2688 100.91L58.3025 109.809H64.2352L61.2688 100.91ZM74.4584 114.814C73.2997 112.821 72.6971 110.689 72.6971 108.325C72.6971 103.644 75.2 99.4264 79.1397 97.109C81.1327 95.9503 83.2647 95.3941 85.6285 95.3941C89.7072 95.3941 93.6006 97.2944 96.0107 100.585L92.1638 103.505C90.5415 101.419 88.2241 100.214 85.6285 100.214C81.179 100.214 77.5174 103.876 77.5174 108.325C77.5174 112.821 81.179 116.483 85.6285 116.483C88.2241 116.483 90.5415 115.278 92.1638 113.238L96.0107 116.112C93.5542 119.403 89.7072 121.303 85.6285 121.303C80.9473 121.303 76.7295 118.847 74.4584 114.814ZM98.4093 95.3941H117.227V100.214H103.23V105.915H110.228V110.736H103.23V116.483H117.227V121.303H98.4093V95.3941Z"
        fill="white" />
    <path
        d="M133.292 95.5665H152.11V100.387H138.113V106.088H145.111V110.908H138.113V121.476H133.292V95.5665ZM155.605 121.476H150.507L159.174 95.5665H165.663L174.33 121.476H169.232L167.007 114.801H157.83L155.605 121.476ZM162.418 101.082L159.452 109.981H165.385L162.418 101.082ZM176.897 121.476V95.5665H181.717V116.655H194.139V121.476H176.897ZM196.098 114.987C194.939 112.994 194.336 110.862 194.336 108.498C194.336 103.817 196.839 99.5989 200.779 97.2814C202.772 96.1227 204.904 95.5665 207.268 95.5665C211.346 95.5665 215.24 97.4668 217.65 100.758L213.803 103.678C212.181 101.592 209.863 100.387 207.268 100.387C202.818 100.387 199.157 104.048 199.157 108.498C199.157 112.994 202.818 116.655 207.268 116.655C209.863 116.655 212.181 115.45 213.803 113.411L217.65 116.285C215.193 119.575 211.346 121.476 207.268 121.476C202.586 121.476 198.369 119.019 196.098 114.987ZM218.176 108.498C218.176 103.817 220.679 99.5989 224.665 97.2814C226.658 96.1227 228.79 95.5665 231.154 95.5665C235.835 95.5665 240.053 98.0693 242.371 102.009C243.529 104.002 244.086 106.134 244.086 108.498C244.086 113.179 241.583 117.397 237.643 119.714C235.65 120.873 233.518 121.476 231.154 121.476C226.473 121.476 222.255 118.973 219.938 114.987C218.779 112.994 218.176 110.862 218.176 108.498ZM222.997 108.498C222.997 112.994 226.658 116.655 231.154 116.655C235.604 116.655 239.265 112.994 239.265 108.498C239.265 105.578 237.736 102.936 235.233 101.453C233.981 100.758 232.591 100.387 231.154 100.387C226.658 100.387 222.997 104.048 222.997 108.498ZM246.649 95.5665H251.33L263.288 112.947V95.5665H268.108V121.476H263.334L251.469 104.234V121.476H246.649V95.5665Z"
        fill="white" />
    <defs>
        <clipPath id="clip0_13_412">
            <rect width="35.4034" height="76.257" fill="white"
                transform="translate(119.777 0.378784)" />
        </clipPath>
    </defs>
</svg>