<svg width="110" height="110" viewBox="0 0 110 110" fill="none" xmlns="http://www.w3.org/2000/svg">
    <rect width="110" height="110" fill="#0F0F0F" />
    <g clip-path="url(#clip0_13_630)">
        <path
            d="M71.183 55.0122C71.183 54.3605 70.9187 53.7334 70.4576 53.2723L66.5229 49.3746V69.3983L60.2521 63.0229L58.2355 61.0126L64.1867 55.1597V28.6561L54.7743 19.717L45.3864 28.6561V54.9753L51.5282 61.0925L43.0564 69.4167V49.3684L39.1217 53.2662C38.6545 53.7273 38.3962 54.3544 38.3962 55.006V80.5076L45.3864 73.6342V80.8396C45.3864 81.4974 45.6508 82.1245 46.118 82.5856L49.2903 85.7149V69.7979L52.4565 66.6871V88.0265L54.7866 90.3381L57.1166 88.0265V66.6563L60.3012 69.7979V86.1759L63.4736 83.0467C63.9408 82.5856 64.2052 81.9585 64.2052 81.3007V73.6465L71.183 80.5322V55.0122ZM50.0465 52.8481V30.6234L54.7743 26.117L59.5266 30.6234V53.2354L54.9464 57.7357L50.0465 52.8481Z"
            fill="#00FFC2" />
    </g>
    <defs>
        <clipPath id="clip0_13_630">
            <rect width="32.7868" height="70.621" fill="white" transform="translate(38.3962 19.717)" />
        </clipPath>
    </defs>
</svg>