<svg width="266" height="106" viewBox="0 0 266 106" fill="none" xmlns="http://www.w3.org/2000/svg">
    <g clip-path="url(#clip0_13_45)">
        <path
            d="M49.0568 52.9541C49.0568 51.979 48.6612 51.0407 47.9713 50.3508L42.0841 44.5189V74.4791L32.7014 64.94L29.6843 61.932L38.5886 53.1748V13.5192L24.5054 0.144226L10.4589 13.5192V52.8989L19.6485 62.0516L6.97263 74.5067V44.5097L1.08545 50.3416C0.386346 51.0315 0 51.9698 0 52.9449V91.1012L10.4589 80.817V91.5979C10.4589 92.5822 10.8545 93.5204 11.5536 94.2103L16.3001 98.8925V75.077L21.0375 70.4224V102.351L24.5238 105.81L28.0101 102.351V70.3764L32.775 75.077V99.5824L37.5216 94.9002C38.2207 94.2103 38.6162 93.2721 38.6162 92.2878V80.8354L49.0568 91.138V52.9541ZM17.4316 49.7161V16.4628L24.5054 9.72009L31.616 16.4628V50.2956L24.763 57.0291L17.4316 49.7161Z"
            fill="#00FFC2" />
    </g>
    <path
        d="M70.2642 41.2102L75.2736 36.7146C77.8426 39.6046 81.696 41.0818 85.5494 41.0818C87.155 41.0818 88.5679 40.8249 89.9166 40.3753C91.7791 39.6046 92.7425 38.7055 92.8067 37.6779C92.8067 37.5495 92.8067 37.421 92.8067 37.3568C92.8067 35.109 92.1645 33.9529 89.8524 33.3107C88.6964 32.9896 86.8981 32.7327 84.3934 32.4758C79.1913 31.8978 75.659 31.2555 72.8973 28.3013C71.4844 26.8241 70.778 24.7047 70.778 21.8789C70.778 18.3466 72.7689 15.4565 76.3012 13.7225C78.8059 12.5022 81.7602 11.86 85.2925 11.86C90.4947 11.86 95.8252 13.3371 99.4218 16.0987L95.3757 21.4293C92.8709 19.5668 89.0817 18.5392 85.2925 18.5392C82.7878 18.5392 80.7969 18.9246 79.2555 19.6953C78.0352 20.2733 77.4572 21.044 77.4572 21.8789C77.4572 23.6771 77.971 24.4478 80.0904 25.0258C81.118 25.347 82.7878 25.6039 85.0999 25.8608C90.302 26.3745 94.1554 27.081 97.2382 30.3564C98.7153 32.0262 99.486 34.4025 99.486 37.5495C99.486 41.5956 96.7886 44.9994 92.2287 46.605C90.2378 47.3757 88.0542 47.7611 85.5494 47.7611C79.8977 47.7611 74.3103 45.6417 70.2642 41.2102ZM103.988 11.86H119.851C126.338 11.86 131.733 17.2548 131.733 23.7414C131.733 30.228 126.338 35.6228 119.851 35.6228H110.667V47.7611H103.988V11.86ZM110.667 18.5392V28.9435H119.851C122.677 28.9435 125.054 26.5672 125.054 23.7414C125.054 20.8513 122.677 18.5392 119.851 18.5392H110.667ZM136.787 47.7611H129.723L141.733 11.86H150.724L162.734 47.7611H155.669L152.587 38.5128H139.87L136.787 47.7611ZM146.228 19.5026L142.118 31.8336H150.339L146.228 19.5026ZM164.505 38.7697C162.899 36.0081 162.064 33.0538 162.064 29.7784C162.064 23.2918 165.532 17.4474 170.991 14.2362C173.753 12.6306 176.707 11.86 179.982 11.86C185.634 11.86 191.029 14.4931 194.369 19.053L189.038 23.0991C186.79 20.2091 183.579 18.5392 179.982 18.5392C173.817 18.5392 168.743 23.6129 168.743 29.7784C168.743 36.0081 173.817 41.0818 179.982 41.0818C183.579 41.0818 186.79 39.412 189.038 36.5861L194.369 40.568C190.965 45.1279 185.634 47.7611 179.982 47.7611C173.496 47.7611 167.652 44.3572 164.505 38.7697ZM197.692 11.86H223.767V18.5392H204.371V26.4388H214.069V33.118H204.371V41.0818H223.767V47.7611H197.692V11.86Z"
        fill="white" />
    <path
        d="M70.3284 60.0278H96.4032V66.7071H77.0077V74.6066H86.7055V81.2859H77.0077V95.9289H70.3284V60.0278ZM101.246 95.9289H94.1815L106.191 60.0278H115.183L127.193 95.9289H120.128L117.045 86.6807H104.329L101.246 95.9289ZM110.687 67.6704L106.577 80.0014H114.797L110.687 67.6704ZM130.749 95.9289V60.0278H137.428V89.2496H154.64V95.9289H130.749ZM157.355 86.9376C155.749 84.1759 154.914 81.2216 154.914 77.9462C154.914 71.4596 158.382 65.6153 163.841 62.4041C166.603 60.7985 169.557 60.0278 172.833 60.0278C178.484 60.0278 183.879 62.661 187.219 67.2209L181.888 71.267C179.64 68.3769 176.429 66.7071 172.833 66.7071C166.667 66.7071 161.593 71.7807 161.593 77.9462C161.593 84.1759 166.667 89.2496 172.833 89.2496C176.429 89.2496 179.64 87.5798 181.888 84.754L187.219 88.7358C183.815 93.2957 178.484 95.9289 172.833 95.9289C166.346 95.9289 160.502 92.525 157.355 86.9376ZM187.948 77.9462C187.948 71.4596 191.416 65.6153 196.94 62.4041C199.701 60.7985 202.655 60.0278 205.931 60.0278C212.417 60.0278 218.262 63.4959 221.473 68.9549C223.079 71.7165 223.849 74.6708 223.849 77.9462C223.849 84.4328 220.381 90.2772 214.922 93.4884C212.161 95.094 209.206 95.9289 205.931 95.9289C199.444 95.9289 193.6 92.4608 190.389 86.9376C188.783 84.1759 187.948 81.2216 187.948 77.9462ZM194.627 77.9462C194.627 84.1759 199.701 89.2496 205.931 89.2496C212.096 89.2496 217.17 84.1759 217.17 77.9462C217.17 73.9001 215.051 70.2394 211.583 68.1842C209.849 67.2209 207.922 66.7071 205.931 66.7071C199.701 66.7071 194.627 71.7807 194.627 77.9462ZM227.401 60.0278H233.887L250.457 84.1117V60.0278H257.136V95.9289H250.521L234.08 72.0376V95.9289H227.401V60.0278Z"
        fill="white" />
    <defs>
        <clipPath id="clip0_13_45">
            <rect width="49.0568" height="105.666" fill="white" transform="translate(0 0.144226)" />
        </clipPath>
    </defs>
</svg>